<mxfile host="65bd71144e">
    <diagram id="2be-THTNuNvCN0owMqXN" name="DB-Achitcture">
        <mxGraphModel dx="1160" dy="1634" grid="1" gridSize="10" guides="1" tooltips="1" connect="1" arrows="1" fold="1" page="1" pageScale="1" pageWidth="850" pageHeight="1100" math="0" shadow="0">
            <root>
                <mxCell id="0"/>
                <mxCell id="1" parent="0"/>
                <mxCell id="2QIpF6AVUyKxiGPU-yzf-5" value="routes" style="edgeStyle=orthogonalEdgeStyle;rounded=0;orthogonalLoop=1;jettySize=auto;html=1;" parent="1" source="2QIpF6AVUyKxiGPU-yzf-1" edge="1">
                    <mxGeometry relative="1" as="geometry">
                        <mxPoint x="390" as="targetPoint"/>
                        <Array as="points">
                            <mxPoint x="360" y="190"/>
                            <mxPoint x="360"/>
                        </Array>
                    </mxGeometry>
                </mxCell>
                <mxCell id="8kqa-zrqso4DdCSM_s6q-43" style="edgeStyle=orthogonalEdgeStyle;rounded=0;orthogonalLoop=1;jettySize=auto;html=1;exitX=0.5;exitY=0;exitDx=0;exitDy=0;entryX=0.5;entryY=1;entryDx=0;entryDy=0;" parent="1" source="2QIpF6AVUyKxiGPU-yzf-1" target="8kqa-zrqso4DdCSM_s6q-7" edge="1">
                    <mxGeometry relative="1" as="geometry"/>
                </mxCell>
                <mxCell id="2QIpF6AVUyKxiGPU-yzf-1" value="Users" style="swimlane;fillColor=#f8cecc;strokeColor=#b85450;shadow=1;rounded=1;swimlaneFillColor=default;" parent="1" vertex="1">
                    <mxGeometry x="70" y="90" width="200" height="620" as="geometry"/>
                </mxCell>
                <mxCell id="2QIpF6AVUyKxiGPU-yzf-2" value="UID - ( primary key )" style="rounded=0;whiteSpace=wrap;html=1;" parent="2QIpF6AVUyKxiGPU-yzf-1" vertex="1">
                    <mxGeometry y="23" width="200" height="17" as="geometry"/>
                </mxCell>
                <mxCell id="HzWzUF8-_IMW7kiPa2Iw-6" value="&lt;b&gt;username&lt;/b&gt;" style="rounded=0;whiteSpace=wrap;html=1;" parent="2QIpF6AVUyKxiGPU-yzf-1" vertex="1">
                    <mxGeometry y="110" width="200" height="17" as="geometry"/>
                </mxCell>
                <mxCell id="HzWzUF8-_IMW7kiPa2Iw-15" value="&lt;b&gt;Dark Theme(true/false)&lt;/b&gt;" style="rounded=0;whiteSpace=wrap;html=1;" parent="2QIpF6AVUyKxiGPU-yzf-1" vertex="1">
                    <mxGeometry y="144" width="200" height="17" as="geometry"/>
                </mxCell>
                <mxCell id="8kqa-zrqso4DdCSM_s6q-1" value="&lt;b&gt;avatarURL&lt;/b&gt;" style="rounded=0;whiteSpace=wrap;html=1;" parent="2QIpF6AVUyKxiGPU-yzf-1" vertex="1">
                    <mxGeometry y="127" width="200" height="17" as="geometry"/>
                </mxCell>
                <mxCell id="8kqa-zrqso4DdCSM_s6q-4" value="&lt;b&gt;Blocked Users ID&lt;/b&gt;" style="rounded=0;whiteSpace=wrap;html=1;" parent="2QIpF6AVUyKxiGPU-yzf-1" vertex="1">
                    <mxGeometry y="161" width="200" height="17" as="geometry"/>
                </mxCell>
                <mxCell id="8kqa-zrqso4DdCSM_s6q-5" value="&lt;b&gt;createdOn&lt;/b&gt;" style="rounded=0;whiteSpace=wrap;html=1;" parent="2QIpF6AVUyKxiGPU-yzf-1" vertex="1">
                    <mxGeometry y="178" width="200" height="17" as="geometry"/>
                </mxCell>
                <mxCell id="8kqa-zrqso4DdCSM_s6q-28" value="&lt;b&gt;Liked Tags&lt;/b&gt;" style="rounded=0;whiteSpace=wrap;html=1;" parent="2QIpF6AVUyKxiGPU-yzf-1" vertex="1">
                    <mxGeometry y="195" width="200" height="17" as="geometry"/>
                </mxCell>
                <mxCell id="-TFifHRZnb5QUAOWfHb_-1" value="&lt;b&gt;info&lt;/b&gt;" style="rounded=0;whiteSpace=wrap;html=1;" parent="2QIpF6AVUyKxiGPU-yzf-1" vertex="1">
                    <mxGeometry y="212" width="200" height="17" as="geometry"/>
                </mxCell>
                <mxCell id="-TFifHRZnb5QUAOWfHb_-2" value="&lt;b&gt;place&lt;/b&gt;" style="rounded=0;whiteSpace=wrap;html=1;" parent="2QIpF6AVUyKxiGPU-yzf-1" vertex="1">
                    <mxGeometry y="229" width="200" height="17" as="geometry"/>
                </mxCell>
                <mxCell id="-TFifHRZnb5QUAOWfHb_-4" value="Education" style="rounded=0;whiteSpace=wrap;html=1;" parent="2QIpF6AVUyKxiGPU-yzf-1" vertex="1">
                    <mxGeometry y="263" width="200" height="17" as="geometry"/>
                </mxCell>
                <mxCell id="-TFifHRZnb5QUAOWfHb_-5" value="Projects" style="rounded=0;whiteSpace=wrap;html=1;" parent="2QIpF6AVUyKxiGPU-yzf-1" vertex="1">
                    <mxGeometry y="280" width="200" height="17" as="geometry"/>
                </mxCell>
                <mxCell id="-TFifHRZnb5QUAOWfHb_-7" value="DOB" style="rounded=0;whiteSpace=wrap;html=1;" parent="2QIpF6AVUyKxiGPU-yzf-1" vertex="1">
                    <mxGeometry y="297" width="200" height="17" as="geometry"/>
                </mxCell>
                <mxCell id="-TFifHRZnb5QUAOWfHb_-8" value="Experience" style="rounded=0;whiteSpace=wrap;html=1;" parent="2QIpF6AVUyKxiGPU-yzf-1" vertex="1">
                    <mxGeometry y="314" width="200" height="17" as="geometry"/>
                </mxCell>
                <mxCell id="-TFifHRZnb5QUAOWfHb_-9" value="Skills" style="rounded=0;whiteSpace=wrap;html=1;" parent="2QIpF6AVUyKxiGPU-yzf-1" vertex="1">
                    <mxGeometry y="331" width="200" height="17" as="geometry"/>
                </mxCell>
                <mxCell id="-TFifHRZnb5QUAOWfHb_-10" value="isDOB_Visible" style="rounded=0;whiteSpace=wrap;html=1;" parent="2QIpF6AVUyKxiGPU-yzf-1" vertex="1">
                    <mxGeometry y="246" width="200" height="17" as="geometry"/>
                </mxCell>
                <mxCell id="-TFifHRZnb5QUAOWfHb_-11" value="&lt;b&gt;user_status&lt;/b&gt;" style="rounded=0;whiteSpace=wrap;html=1;" parent="2QIpF6AVUyKxiGPU-yzf-1" vertex="1">
                    <mxGeometry y="365" width="200" height="17" as="geometry"/>
                </mxCell>
                <mxCell id="-TFifHRZnb5QUAOWfHb_-12" value="Music" style="rounded=0;whiteSpace=wrap;html=1;" parent="2QIpF6AVUyKxiGPU-yzf-1" vertex="1">
                    <mxGeometry y="382" width="200" height="17" as="geometry"/>
                </mxCell>
                <mxCell id="-TFifHRZnb5QUAOWfHb_-14" value="user_blocked" style="rounded=0;whiteSpace=wrap;html=1;" parent="2QIpF6AVUyKxiGPU-yzf-1" vertex="1">
                    <mxGeometry y="399" width="200" height="17" as="geometry"/>
                </mxCell>
                <mxCell id="owdlpUDmySh1TMZ5OT5K-6" value="Delete-Request" style="rounded=0;whiteSpace=wrap;html=1;" parent="2QIpF6AVUyKxiGPU-yzf-1" vertex="1">
                    <mxGeometry y="576" width="200" height="20" as="geometry"/>
                </mxCell>
                <mxCell id="owdlpUDmySh1TMZ5OT5K-5" value="De-Activate-Reson" style="rounded=0;whiteSpace=wrap;html=1;" parent="2QIpF6AVUyKxiGPU-yzf-1" vertex="1">
                    <mxGeometry y="556" width="200" height="20" as="geometry"/>
                </mxCell>
                <mxCell id="owdlpUDmySh1TMZ5OT5K-4" value="De-Activate" style="rounded=0;whiteSpace=wrap;html=1;" parent="2QIpF6AVUyKxiGPU-yzf-1" vertex="1">
                    <mxGeometry y="536" width="200" height="20" as="geometry"/>
                </mxCell>
                <mxCell id="owdlpUDmySh1TMZ5OT5K-8" value="&lt;b&gt;appearanceURL&lt;/b&gt;" style="rounded=0;whiteSpace=wrap;html=1;" parent="2QIpF6AVUyKxiGPU-yzf-1" vertex="1">
                    <mxGeometry y="516" width="200" height="20" as="geometry"/>
                </mxCell>
                <mxCell id="owdlpUDmySh1TMZ5OT5K-2" value="&lt;b&gt;EmailVerification ( true/false )&lt;/b&gt;" style="rounded=0;whiteSpace=wrap;html=1;" parent="2QIpF6AVUyKxiGPU-yzf-1" vertex="1">
                    <mxGeometry y="416" width="200" height="20" as="geometry"/>
                </mxCell>
                <mxCell id="owdlpUDmySh1TMZ5OT5K-3" value="&lt;b&gt;MobileVerification ( true/false )&lt;/b&gt;" style="rounded=0;whiteSpace=wrap;html=1;" parent="2QIpF6AVUyKxiGPU-yzf-1" vertex="1">
                    <mxGeometry y="436" width="200" height="20" as="geometry"/>
                </mxCell>
                <mxCell id="owdlpUDmySh1TMZ5OT5K-9" value="&lt;b&gt;MobileVerification-hash&lt;/b&gt;" style="rounded=0;whiteSpace=wrap;html=1;" parent="2QIpF6AVUyKxiGPU-yzf-1" vertex="1">
                    <mxGeometry y="456" width="200" height="20" as="geometry"/>
                </mxCell>
                <mxCell id="owdlpUDmySh1TMZ5OT5K-7" value="&lt;b&gt;EmailVerification-hash&lt;/b&gt;" style="rounded=0;whiteSpace=wrap;html=1;" parent="2QIpF6AVUyKxiGPU-yzf-1" vertex="1">
                    <mxGeometry y="476" width="200" height="20" as="geometry"/>
                </mxCell>
                <mxCell id="ay8WU33fq49zgbgqs7b7-1" value="&lt;b&gt;isAdmin(true/false)&lt;/b&gt;" style="rounded=0;whiteSpace=wrap;html=1;" parent="2QIpF6AVUyKxiGPU-yzf-1" vertex="1">
                    <mxGeometry y="496" width="200" height="20" as="geometry"/>
                </mxCell>
                <mxCell id="12" value="&lt;span&gt;countryCode&lt;/span&gt;" style="rounded=0;whiteSpace=wrap;html=1;" parent="2QIpF6AVUyKxiGPU-yzf-1" vertex="1">
                    <mxGeometry y="348" width="200" height="20" as="geometry"/>
                </mxCell>
                <mxCell id="13" value="isForgotVerified" style="rounded=0;whiteSpace=wrap;html=1;" parent="2QIpF6AVUyKxiGPU-yzf-1" vertex="1">
                    <mxGeometry y="596" width="200" height="20" as="geometry"/>
                </mxCell>
                <mxCell id="2QIpF6AVUyKxiGPU-yzf-3" value="&lt;b&gt;full_name&lt;/b&gt;" style="rounded=0;whiteSpace=wrap;html=1;" parent="1" vertex="1">
                    <mxGeometry x="70" y="131" width="200" height="17" as="geometry"/>
                </mxCell>
                <mxCell id="2QIpF6AVUyKxiGPU-yzf-25" style="edgeStyle=orthogonalEdgeStyle;rounded=0;orthogonalLoop=1;jettySize=auto;html=1;exitX=0.5;exitY=0;exitDx=0;exitDy=0;" parent="1" source="2QIpF6AVUyKxiGPU-yzf-4" edge="1">
                    <mxGeometry relative="1" as="geometry">
                        <mxPoint x="740" y="90" as="targetPoint"/>
                    </mxGeometry>
                </mxCell>
                <mxCell id="8kqa-zrqso4DdCSM_s6q-40" style="edgeStyle=orthogonalEdgeStyle;rounded=0;orthogonalLoop=1;jettySize=auto;html=1;exitX=0.25;exitY=0;exitDx=0;exitDy=0;entryX=1;entryY=0.5;entryDx=0;entryDy=0;" parent="1" source="2QIpF6AVUyKxiGPU-yzf-4" target="ZeOIJR77l9cZIXPEnhxW-8" edge="1">
                    <mxGeometry relative="1" as="geometry"/>
                </mxCell>
                <mxCell id="8kqa-zrqso4DdCSM_s6q-41" style="edgeStyle=orthogonalEdgeStyle;rounded=0;orthogonalLoop=1;jettySize=auto;html=1;exitX=0;exitY=0;exitDx=0;exitDy=0;entryX=1;entryY=0.25;entryDx=0;entryDy=0;" parent="1" source="2QIpF6AVUyKxiGPU-yzf-4" target="8kqa-zrqso4DdCSM_s6q-11" edge="1">
                    <mxGeometry relative="1" as="geometry"/>
                </mxCell>
                <mxCell id="2QIpF6AVUyKxiGPU-yzf-4" value="Posts" style="swimlane;fillColor=#dae8fc;strokeColor=#6c8ebf;rounded=1;shadow=1;sketch=0;glass=0;gradientColor=none;swimlaneFillColor=default;" parent="1" vertex="1">
                    <mxGeometry x="390" y="-60" width="200" height="200" as="geometry"/>
                </mxCell>
                <mxCell id="2QIpF6AVUyKxiGPU-yzf-6" value="Post ID ( primary key )" style="rounded=0;whiteSpace=wrap;html=1;" parent="2QIpF6AVUyKxiGPU-yzf-4" vertex="1">
                    <mxGeometry y="23" width="200" height="17" as="geometry"/>
                </mxCell>
                <mxCell id="ZeOIJR77l9cZIXPEnhxW-3" value="Caption" style="rounded=0;whiteSpace=wrap;html=1;" parent="2QIpF6AVUyKxiGPU-yzf-4" vertex="1">
                    <mxGeometry y="108.5" width="200" height="17" as="geometry"/>
                </mxCell>
                <mxCell id="ZeOIJR77l9cZIXPEnhxW-4" value="Tags" style="rounded=0;whiteSpace=wrap;html=1;" parent="2QIpF6AVUyKxiGPU-yzf-4" vertex="1">
                    <mxGeometry y="75" width="200" height="17" as="geometry"/>
                </mxCell>
                <mxCell id="ZeOIJR77l9cZIXPEnhxW-5" value="media URLs" style="rounded=0;whiteSpace=wrap;html=1;" parent="2QIpF6AVUyKxiGPU-yzf-4" vertex="1">
                    <mxGeometry y="91.5" width="200" height="17" as="geometry"/>
                </mxCell>
                <mxCell id="ZeOIJR77l9cZIXPEnhxW-6" value="Circle ID" style="rounded=0;whiteSpace=wrap;html=1;" parent="2QIpF6AVUyKxiGPU-yzf-4" vertex="1">
                    <mxGeometry y="58" width="200" height="17" as="geometry"/>
                </mxCell>
                <mxCell id="HzWzUF8-_IMW7kiPa2Iw-13" value="Category" style="rounded=0;whiteSpace=wrap;html=1;" parent="2QIpF6AVUyKxiGPU-yzf-4" vertex="1">
                    <mxGeometry y="125.5" width="200" height="17" as="geometry"/>
                </mxCell>
                <mxCell id="8kqa-zrqso4DdCSM_s6q-19" value="Post Create Time" style="rounded=0;whiteSpace=wrap;html=1;" parent="2QIpF6AVUyKxiGPU-yzf-4" vertex="1">
                    <mxGeometry y="142.5" width="200" height="17" as="geometry"/>
                </mxCell>
                <mxCell id="2QIpF6AVUyKxiGPU-yzf-7" value="UID ( forign key - creator )" style="rounded=0;whiteSpace=wrap;html=1;" parent="1" vertex="1">
                    <mxGeometry x="390" y="-19" width="200" height="17" as="geometry"/>
                </mxCell>
                <mxCell id="2QIpF6AVUyKxiGPU-yzf-8" value="&lt;b&gt;Phone&lt;/b&gt;" style="rounded=0;whiteSpace=wrap;html=1;" parent="1" vertex="1">
                    <mxGeometry x="70" y="149" width="200" height="17" as="geometry"/>
                </mxCell>
                <mxCell id="2QIpF6AVUyKxiGPU-yzf-9" value="&lt;b&gt;Email&lt;/b&gt;" style="rounded=0;whiteSpace=wrap;html=1;" parent="1" vertex="1">
                    <mxGeometry x="70" y="167" width="200" height="17" as="geometry"/>
                </mxCell>
                <mxCell id="2QIpF6AVUyKxiGPU-yzf-10" value="&lt;b&gt;Password&lt;/b&gt;" style="rounded=0;whiteSpace=wrap;html=1;" parent="1" vertex="1">
                    <mxGeometry x="70" y="185" width="200" height="17" as="geometry"/>
                </mxCell>
                <mxCell id="2QIpF6AVUyKxiGPU-yzf-11" value="Comments" style="swimlane;fillColor=#fff2cc;strokeColor=#d6b656;swimlaneFillColor=default;rounded=1;sketch=0;shadow=1;" parent="1" vertex="1">
                    <mxGeometry x="740" y="-230" width="200" height="200" as="geometry"/>
                </mxCell>
                <mxCell id="2QIpF6AVUyKxiGPU-yzf-13" value="Comment ID ( primary key )" style="rounded=0;whiteSpace=wrap;html=1;" parent="2QIpF6AVUyKxiGPU-yzf-11" vertex="1">
                    <mxGeometry x="1" y="24" width="199" height="16" as="geometry"/>
                </mxCell>
                <mxCell id="ZeOIJR77l9cZIXPEnhxW-29" value="Comment Text" style="rounded=0;whiteSpace=wrap;html=1;" parent="2QIpF6AVUyKxiGPU-yzf-11" vertex="1">
                    <mxGeometry x="1" y="74" width="199" height="16" as="geometry"/>
                </mxCell>
                <mxCell id="8kqa-zrqso4DdCSM_s6q-21" value="Comment Time" style="rounded=0;whiteSpace=wrap;html=1;" parent="2QIpF6AVUyKxiGPU-yzf-11" vertex="1">
                    <mxGeometry x="1" y="90" width="199" height="16" as="geometry"/>
                </mxCell>
                <mxCell id="8kqa-zrqso4DdCSM_s6q-57" value="Parent Comment ID? - Foreign Key" style="rounded=0;whiteSpace=wrap;html=1;" parent="2QIpF6AVUyKxiGPU-yzf-11" vertex="1">
                    <mxGeometry x="1" y="106" width="199" height="16" as="geometry"/>
                </mxCell>
                <mxCell id="8kqa-zrqso4DdCSM_s6q-58" value="isChild(yes/no)" style="rounded=0;whiteSpace=wrap;html=1;" parent="2QIpF6AVUyKxiGPU-yzf-11" vertex="1">
                    <mxGeometry x="1" y="122" width="199" height="16" as="geometry"/>
                </mxCell>
                <mxCell id="2QIpF6AVUyKxiGPU-yzf-14" value="Post ID? (Foreign Key)" style="rounded=0;whiteSpace=wrap;html=1;" parent="1" vertex="1">
                    <mxGeometry x="741" y="-189" width="199" height="16" as="geometry"/>
                </mxCell>
                <mxCell id="2QIpF6AVUyKxiGPU-yzf-15" value="User ID (Commentor)" style="rounded=0;whiteSpace=wrap;html=1;" parent="1" vertex="1">
                    <mxGeometry x="741" y="-172" width="199" height="16" as="geometry"/>
                </mxCell>
                <mxCell id="2QIpF6AVUyKxiGPU-yzf-19" value="Likes" style="swimlane;fillColor=#ffe6cc;strokeColor=#d79b00;swimlaneFillColor=default;rounded=1;shadow=1;" parent="1" vertex="1">
                    <mxGeometry x="741" y="10" width="200" height="200" as="geometry"/>
                </mxCell>
                <mxCell id="2QIpF6AVUyKxiGPU-yzf-20" value="Like ID ( primary key )" style="rounded=0;whiteSpace=wrap;html=1;" parent="2QIpF6AVUyKxiGPU-yzf-19" vertex="1">
                    <mxGeometry x="1" y="24" width="199" height="16" as="geometry"/>
                </mxCell>
                <mxCell id="ZeOIJR77l9cZIXPEnhxW-30" value="Like Emoji" style="rounded=0;whiteSpace=wrap;html=1;" parent="2QIpF6AVUyKxiGPU-yzf-19" vertex="1">
                    <mxGeometry x="1" y="108" width="199" height="16" as="geometry"/>
                </mxCell>
                <mxCell id="8kqa-zrqso4DdCSM_s6q-20" value="Like Time" style="rounded=0;whiteSpace=wrap;html=1;" parent="2QIpF6AVUyKxiGPU-yzf-19" vertex="1">
                    <mxGeometry x="1" y="124" width="199" height="16" as="geometry"/>
                </mxCell>
                <mxCell id="2QIpF6AVUyKxiGPU-yzf-21" value="User ID" style="rounded=0;whiteSpace=wrap;html=1;" parent="1" vertex="1">
                    <mxGeometry x="742" y="68" width="199" height="16" as="geometry"/>
                </mxCell>
                <mxCell id="2QIpF6AVUyKxiGPU-yzf-22" value="Comment ID? - Foreign Key" style="rounded=0;whiteSpace=wrap;html=1;" parent="1" vertex="1">
                    <mxGeometry x="742" y="51" width="199" height="16" as="geometry"/>
                </mxCell>
                <mxCell id="2QIpF6AVUyKxiGPU-yzf-23" value="Post ID? - Foreign Key" style="rounded=0;whiteSpace=wrap;html=1;" parent="1" vertex="1">
                    <mxGeometry x="742" y="85" width="199" height="16" as="geometry"/>
                </mxCell>
                <mxCell id="2QIpF6AVUyKxiGPU-yzf-24" value="isComment ( true / false )" style="rounded=0;whiteSpace=wrap;html=1;" parent="1" vertex="1">
                    <mxGeometry x="742" y="102" width="199" height="16" as="geometry"/>
                </mxCell>
                <mxCell id="ZeOIJR77l9cZIXPEnhxW-2" value="" style="endArrow=classic;html=1;rounded=0;entryX=0;entryY=0.5;entryDx=0;entryDy=0;" parent="1" target="2QIpF6AVUyKxiGPU-yzf-11" edge="1">
                    <mxGeometry width="50" height="50" relative="1" as="geometry">
                        <mxPoint x="490" y="-80" as="sourcePoint"/>
                        <mxPoint x="490" y="-150" as="targetPoint"/>
                        <Array as="points">
                            <mxPoint x="490" y="-130"/>
                        </Array>
                    </mxGeometry>
                </mxCell>
                <mxCell id="8kqa-zrqso4DdCSM_s6q-42" style="edgeStyle=orthogonalEdgeStyle;rounded=0;orthogonalLoop=1;jettySize=auto;html=1;exitX=0.5;exitY=0;exitDx=0;exitDy=0;entryX=0.5;entryY=1;entryDx=0;entryDy=0;" parent="1" source="ZeOIJR77l9cZIXPEnhxW-8" target="HzWzUF8-_IMW7kiPa2Iw-1" edge="1">
                    <mxGeometry relative="1" as="geometry"/>
                </mxCell>
                <mxCell id="8kqa-zrqso4DdCSM_s6q-44" style="edgeStyle=orthogonalEdgeStyle;rounded=0;orthogonalLoop=1;jettySize=auto;html=1;exitX=0.5;exitY=1;exitDx=0;exitDy=0;entryX=0.5;entryY=0;entryDx=0;entryDy=0;" parent="1" source="ZeOIJR77l9cZIXPEnhxW-8" target="8kqa-zrqso4DdCSM_s6q-7" edge="1">
                    <mxGeometry relative="1" as="geometry"/>
                </mxCell>
                <mxCell id="ZeOIJR77l9cZIXPEnhxW-8" value="Circles" style="swimlane;fillColor=#e1d5e7;strokeColor=#9673a6;rounded=1;shadow=1;swimlaneFillColor=default;" parent="1" vertex="1">
                    <mxGeometry x="70" y="-360" width="200" height="200" as="geometry"/>
                </mxCell>
                <mxCell id="ZeOIJR77l9cZIXPEnhxW-9" value="Circle ID ( primary key )" style="rounded=0;whiteSpace=wrap;html=1;" parent="ZeOIJR77l9cZIXPEnhxW-8" vertex="1">
                    <mxGeometry y="23" width="200" height="17" as="geometry"/>
                </mxCell>
                <mxCell id="ZeOIJR77l9cZIXPEnhxW-10" value="isPrivate" style="rounded=0;whiteSpace=wrap;html=1;" parent="ZeOIJR77l9cZIXPEnhxW-8" vertex="1">
                    <mxGeometry y="58" width="200" height="17" as="geometry"/>
                </mxCell>
                <mxCell id="ZeOIJR77l9cZIXPEnhxW-11" value="Tags" style="rounded=0;whiteSpace=wrap;html=1;" parent="ZeOIJR77l9cZIXPEnhxW-8" vertex="1">
                    <mxGeometry y="75" width="200" height="17" as="geometry"/>
                </mxCell>
                <mxCell id="ZeOIJR77l9cZIXPEnhxW-12" value="About" style="rounded=0;whiteSpace=wrap;html=1;" parent="ZeOIJR77l9cZIXPEnhxW-8" vertex="1">
                    <mxGeometry y="91.5" width="200" height="17" as="geometry"/>
                </mxCell>
                <mxCell id="ZeOIJR77l9cZIXPEnhxW-13" value="Circle Images(Profile &amp;amp; Back)" style="rounded=0;whiteSpace=wrap;html=1;" parent="ZeOIJR77l9cZIXPEnhxW-8" vertex="1">
                    <mxGeometry y="108.5" width="200" height="17" as="geometry"/>
                </mxCell>
                <mxCell id="ZeOIJR77l9cZIXPEnhxW-15" value="UID ( forign key - creator )" style="rounded=0;whiteSpace=wrap;html=1;" parent="ZeOIJR77l9cZIXPEnhxW-8" vertex="1">
                    <mxGeometry y="41" width="200" height="17" as="geometry"/>
                </mxCell>
                <mxCell id="HzWzUF8-_IMW7kiPa2Iw-8" value="Circle Create Date Time" style="rounded=0;whiteSpace=wrap;html=1;" parent="ZeOIJR77l9cZIXPEnhxW-8" vertex="1">
                    <mxGeometry y="125.5" width="200" height="17" as="geometry"/>
                </mxCell>
                <mxCell id="HzWzUF8-_IMW7kiPa2Iw-9" value="Category(Subtopics)" style="rounded=0;whiteSpace=wrap;html=1;" parent="ZeOIJR77l9cZIXPEnhxW-8" vertex="1">
                    <mxGeometry y="142.5" width="200" height="17" as="geometry"/>
                </mxCell>
                <mxCell id="8kqa-zrqso4DdCSM_s6q-39" value="Circle Admins User ID" style="rounded=0;whiteSpace=wrap;html=1;" parent="ZeOIJR77l9cZIXPEnhxW-8" vertex="1">
                    <mxGeometry y="159.5" width="200" height="17" as="geometry"/>
                </mxCell>
                <mxCell id="ikXOdWdKuYCcfvPJfYeY-1" value="CircleName(Topic)" style="rounded=0;whiteSpace=wrap;html=1;" parent="ZeOIJR77l9cZIXPEnhxW-8" vertex="1">
                    <mxGeometry y="176.5" width="200" height="17" as="geometry"/>
                </mxCell>
                <mxCell id="ZeOIJR77l9cZIXPEnhxW-18" value="Shares" style="swimlane;fillColor=#d5e8d4;strokeColor=#82b366;swimlaneFillColor=default;rounded=1;shadow=1;" parent="1" vertex="1">
                    <mxGeometry x="742" y="-490" width="200" height="200" as="geometry"/>
                </mxCell>
                <mxCell id="ZeOIJR77l9cZIXPEnhxW-19" value="Share ID ( primary key )" style="rounded=0;whiteSpace=wrap;html=1;" parent="ZeOIJR77l9cZIXPEnhxW-18" vertex="1">
                    <mxGeometry y="23" width="200" height="17" as="geometry"/>
                </mxCell>
                <mxCell id="ZeOIJR77l9cZIXPEnhxW-20" value="Post ID - Foreign Key" style="rounded=0;whiteSpace=wrap;html=1;" parent="ZeOIJR77l9cZIXPEnhxW-18" vertex="1">
                    <mxGeometry y="40" width="200" height="17" as="geometry"/>
                </mxCell>
                <mxCell id="ZeOIJR77l9cZIXPEnhxW-27" value="User ID" style="rounded=0;whiteSpace=wrap;html=1;" parent="ZeOIJR77l9cZIXPEnhxW-18" vertex="1">
                    <mxGeometry y="57" width="200" height="17" as="geometry"/>
                </mxCell>
                <mxCell id="8kqa-zrqso4DdCSM_s6q-23" value="Share Time" style="rounded=0;whiteSpace=wrap;html=1;" parent="ZeOIJR77l9cZIXPEnhxW-18" vertex="1">
                    <mxGeometry y="74" width="200" height="17" as="geometry"/>
                </mxCell>
                <mxCell id="ZeOIJR77l9cZIXPEnhxW-28" value="" style="endArrow=classic;html=1;rounded=0;entryX=0;entryY=0.5;entryDx=0;entryDy=0;" parent="1" target="ZeOIJR77l9cZIXPEnhxW-18" edge="1">
                    <mxGeometry width="50" height="50" relative="1" as="geometry">
                        <mxPoint x="490" y="-130" as="sourcePoint"/>
                        <mxPoint x="570" y="-260" as="targetPoint"/>
                        <Array as="points">
                            <mxPoint x="490" y="-390"/>
                        </Array>
                    </mxGeometry>
                </mxCell>
                <mxCell id="HzWzUF8-_IMW7kiPa2Iw-1" value="Followers" style="swimlane;fillColor=#bac8d3;strokeColor=#23445d;rounded=1;shadow=1;swimlaneFillColor=default;" parent="1" vertex="1">
                    <mxGeometry x="70" y="-590" width="200" height="200" as="geometry"/>
                </mxCell>
                <mxCell id="HzWzUF8-_IMW7kiPa2Iw-2" value="Follower ID ( primary key )" style="rounded=0;whiteSpace=wrap;html=1;" parent="HzWzUF8-_IMW7kiPa2Iw-1" vertex="1">
                    <mxGeometry y="23" width="200" height="17" as="geometry"/>
                </mxCell>
                <mxCell id="HzWzUF8-_IMW7kiPa2Iw-3" value="Circle ID? - Foreign Key" style="rounded=0;whiteSpace=wrap;html=1;" parent="HzWzUF8-_IMW7kiPa2Iw-1" vertex="1">
                    <mxGeometry y="40" width="200" height="17" as="geometry"/>
                </mxCell>
                <mxCell id="HzWzUF8-_IMW7kiPa2Iw-4" value="User ID? - Foreign Key" style="rounded=0;whiteSpace=wrap;html=1;" parent="HzWzUF8-_IMW7kiPa2Iw-1" vertex="1">
                    <mxGeometry y="57" width="200" height="17" as="geometry"/>
                </mxCell>
                <mxCell id="8kqa-zrqso4DdCSM_s6q-18" value="Follow Time" style="rounded=0;whiteSpace=wrap;html=1;" parent="HzWzUF8-_IMW7kiPa2Iw-1" vertex="1">
                    <mxGeometry y="74" width="200" height="17" as="geometry"/>
                </mxCell>
                <mxCell id="-TFifHRZnb5QUAOWfHb_-15" value="isCircle(true/false)" style="rounded=0;whiteSpace=wrap;html=1;" parent="HzWzUF8-_IMW7kiPa2Iw-1" vertex="1">
                    <mxGeometry y="91" width="200" height="17" as="geometry"/>
                </mxCell>
                <mxCell id="-TFifHRZnb5QUAOWfHb_-17" value="followerUID" style="rounded=0;whiteSpace=wrap;html=1;" parent="HzWzUF8-_IMW7kiPa2Iw-1" vertex="1">
                    <mxGeometry y="108" width="200" height="17" as="geometry"/>
                </mxCell>
                <mxCell id="14" value="isPost(true/false)" style="rounded=0;whiteSpace=wrap;html=1;" vertex="1" parent="HzWzUF8-_IMW7kiPa2Iw-1">
                    <mxGeometry y="125" width="200" height="17" as="geometry"/>
                </mxCell>
                <mxCell id="8kqa-zrqso4DdCSM_s6q-7" value="Reports" style="swimlane;fillColor=#f8cecc;strokeColor=#b85450;gradientColor=#ea6b66;shadow=1;rounded=1;swimlaneFillColor=default;" parent="1" vertex="1">
                    <mxGeometry x="70" y="-133" width="200" height="194" as="geometry"/>
                </mxCell>
                <mxCell id="8kqa-zrqso4DdCSM_s6q-8" value="Report ID ( primary key )" style="rounded=0;whiteSpace=wrap;html=1;" parent="8kqa-zrqso4DdCSM_s6q-7" vertex="1">
                    <mxGeometry y="23" width="200" height="17" as="geometry"/>
                </mxCell>
                <mxCell id="8kqa-zrqso4DdCSM_s6q-9" value="Text" style="rounded=0;whiteSpace=wrap;html=1;" parent="8kqa-zrqso4DdCSM_s6q-7" vertex="1">
                    <mxGeometry y="57" width="200" height="17" as="geometry"/>
                </mxCell>
                <mxCell id="8kqa-zrqso4DdCSM_s6q-11" value="Report Media URLs" style="rounded=0;whiteSpace=wrap;html=1;" parent="8kqa-zrqso4DdCSM_s6q-7" vertex="1">
                    <mxGeometry y="40" width="200" height="17" as="geometry"/>
                </mxCell>
                <mxCell id="8kqa-zrqso4DdCSM_s6q-17" value="Report Category" style="rounded=0;whiteSpace=wrap;html=1;" parent="8kqa-zrqso4DdCSM_s6q-7" vertex="1">
                    <mxGeometry y="74" width="200" height="17" as="geometry"/>
                </mxCell>
                <mxCell id="8kqa-zrqso4DdCSM_s6q-22" value="Report Time" style="rounded=0;whiteSpace=wrap;html=1;" parent="8kqa-zrqso4DdCSM_s6q-7" vertex="1">
                    <mxGeometry y="91.5" width="200" height="17" as="geometry"/>
                </mxCell>
                <mxCell id="8kqa-zrqso4DdCSM_s6q-24" value="Post&amp;nbsp; ID? - Foreign Key" style="rounded=0;whiteSpace=wrap;html=1;" parent="8kqa-zrqso4DdCSM_s6q-7" vertex="1">
                    <mxGeometry y="108.5" width="200" height="17" as="geometry"/>
                </mxCell>
                <mxCell id="8kqa-zrqso4DdCSM_s6q-25" value="Report Type" style="rounded=0;whiteSpace=wrap;html=1;" parent="8kqa-zrqso4DdCSM_s6q-7" vertex="1">
                    <mxGeometry y="125.5" width="200" height="17" as="geometry"/>
                </mxCell>
                <mxCell id="8kqa-zrqso4DdCSM_s6q-26" value="Comment ID? - Foreign Key" style="rounded=0;whiteSpace=wrap;html=1;" parent="8kqa-zrqso4DdCSM_s6q-7" vertex="1">
                    <mxGeometry y="142.5" width="200" height="17" as="geometry"/>
                </mxCell>
                <mxCell id="8kqa-zrqso4DdCSM_s6q-27" value="User&amp;nbsp; ID? - Foreign Key" style="rounded=0;whiteSpace=wrap;html=1;" parent="8kqa-zrqso4DdCSM_s6q-7" vertex="1">
                    <mxGeometry y="159.5" width="200" height="17" as="geometry"/>
                </mxCell>
                <mxCell id="-TFifHRZnb5QUAOWfHb_-18" value="Circle&amp;nbsp; ID? - Foreign Key" style="rounded=0;whiteSpace=wrap;html=1;" parent="8kqa-zrqso4DdCSM_s6q-7" vertex="1">
                    <mxGeometry y="176.5" width="200" height="17" as="geometry"/>
                </mxCell>
                <mxCell id="8kqa-zrqso4DdCSM_s6q-45" value="Chips" style="swimlane;fillColor=#ffcd28;strokeColor=#d79b00;gradientColor=#ffa500;swimlaneFillColor=default;rounded=1;shadow=1;" parent="1" vertex="1">
                    <mxGeometry x="400" y="-630" width="200" height="200" as="geometry"/>
                </mxCell>
                <mxCell id="8kqa-zrqso4DdCSM_s6q-46" value="Chip ID ( primary key )" style="rounded=0;whiteSpace=wrap;html=1;" parent="8kqa-zrqso4DdCSM_s6q-45" vertex="1">
                    <mxGeometry y="23" width="200" height="17" as="geometry"/>
                </mxCell>
                <mxCell id="8kqa-zrqso4DdCSM_s6q-47" value="User ID (Creator)" style="rounded=0;whiteSpace=wrap;html=1;" parent="8kqa-zrqso4DdCSM_s6q-45" vertex="1">
                    <mxGeometry y="40" width="200" height="17" as="geometry"/>
                </mxCell>
                <mxCell id="8kqa-zrqso4DdCSM_s6q-48" value="Create Time" style="rounded=0;whiteSpace=wrap;html=1;" parent="8kqa-zrqso4DdCSM_s6q-45" vertex="1">
                    <mxGeometry y="57" width="200" height="17" as="geometry"/>
                </mxCell>
                <mxCell id="8kqa-zrqso4DdCSM_s6q-49" value="Tags" style="rounded=0;whiteSpace=wrap;html=1;" parent="8kqa-zrqso4DdCSM_s6q-45" vertex="1">
                    <mxGeometry y="74" width="200" height="17" as="geometry"/>
                </mxCell>
                <mxCell id="8kqa-zrqso4DdCSM_s6q-50" value="Caption" style="rounded=0;whiteSpace=wrap;html=1;" parent="8kqa-zrqso4DdCSM_s6q-45" vertex="1">
                    <mxGeometry y="91.5" width="200" height="17" as="geometry"/>
                </mxCell>
                <mxCell id="8kqa-zrqso4DdCSM_s6q-51" value="Image/Video URL" style="rounded=0;whiteSpace=wrap;html=1;" parent="8kqa-zrqso4DdCSM_s6q-45" vertex="1">
                    <mxGeometry y="108.5" width="200" height="17" as="geometry"/>
                </mxCell>
                <mxCell id="8kqa-zrqso4DdCSM_s6q-56" value="Circle ID&amp;nbsp;" style="rounded=0;whiteSpace=wrap;html=1;" parent="8kqa-zrqso4DdCSM_s6q-45" vertex="1">
                    <mxGeometry y="125.5" width="200" height="17" as="geometry"/>
                </mxCell>
                <mxCell id="-TFifHRZnb5QUAOWfHb_-20" style="edgeStyle=orthogonalEdgeStyle;rounded=0;orthogonalLoop=1;jettySize=auto;html=1;exitX=1;exitY=0;exitDx=0;exitDy=0;entryX=1;entryY=0.75;entryDx=0;entryDy=0;" parent="1" source="2QIpF6AVUyKxiGPU-yzf-2" target="HzWzUF8-_IMW7kiPa2Iw-1" edge="1">
                    <mxGeometry relative="1" as="geometry">
                        <Array as="points">
                            <mxPoint x="290" y="113"/>
                            <mxPoint x="290" y="-440"/>
                        </Array>
                    </mxGeometry>
                </mxCell>
                <mxCell id="owdlpUDmySh1TMZ5OT5K-11" value="Favourites" style="swimlane;fontStyle=0;childLayout=stackLayout;horizontal=1;startSize=26;horizontalStack=0;resizeParent=1;resizeParentMax=0;resizeLast=0;collapsible=1;marginBottom=0;align=center;fontSize=14;fillColor=#dae8fc;strokeColor=#6c8ebf;sketch=1;shadow=1;swimlaneFillColor=default;" parent="1" vertex="1">
                    <mxGeometry x="390" y="310" width="200" height="116" as="geometry"/>
                </mxCell>
                <mxCell id="owdlpUDmySh1TMZ5OT5K-12" value="PostID" style="text;strokeColor=default;fillColor=none;spacingLeft=4;spacingRight=4;overflow=hidden;rotatable=0;points=[[0,0.5],[1,0.5]];portConstraint=eastwest;fontSize=12;" parent="owdlpUDmySh1TMZ5OT5K-11" vertex="1">
                    <mxGeometry y="26" width="200" height="30" as="geometry"/>
                </mxCell>
                <mxCell id="owdlpUDmySh1TMZ5OT5K-13" value="FavID" style="text;strokeColor=default;fillColor=none;spacingLeft=4;spacingRight=4;overflow=hidden;rotatable=0;points=[[0,0.5],[1,0.5]];portConstraint=eastwest;fontSize=12;" parent="owdlpUDmySh1TMZ5OT5K-11" vertex="1">
                    <mxGeometry y="56" width="200" height="30" as="geometry"/>
                </mxCell>
                <mxCell id="owdlpUDmySh1TMZ5OT5K-14" value="UserID" style="text;strokeColor=default;fillColor=none;spacingLeft=4;spacingRight=4;overflow=hidden;rotatable=0;points=[[0,0.5],[1,0.5]];portConstraint=eastwest;fontSize=12;" parent="owdlpUDmySh1TMZ5OT5K-11" vertex="1">
                    <mxGeometry y="86" width="200" height="30" as="geometry"/>
                </mxCell>
                <mxCell id="owdlpUDmySh1TMZ5OT5K-16" value="" style="endArrow=classic;html=1;rounded=0;exitX=0.5;exitY=1;exitDx=0;exitDy=0;" parent="1" source="2QIpF6AVUyKxiGPU-yzf-4" target="owdlpUDmySh1TMZ5OT5K-11" edge="1">
                    <mxGeometry width="50" height="50" relative="1" as="geometry">
                        <mxPoint x="550" y="230" as="sourcePoint"/>
                        <mxPoint x="600" y="180" as="targetPoint"/>
                    </mxGeometry>
                </mxCell>
                <mxCell id="owdlpUDmySh1TMZ5OT5K-18" value="" style="edgeStyle=orthogonalEdgeStyle;rounded=0;orthogonalLoop=1;jettySize=auto;html=1;entryX=-0.02;entryY=0.072;entryDx=0;entryDy=0;entryPerimeter=0;" parent="1" source="owdlpUDmySh1TMZ5OT5K-17" target="8kqa-zrqso4DdCSM_s6q-7" edge="1">
                    <mxGeometry relative="1" as="geometry"/>
                </mxCell>
                <mxCell id="owdlpUDmySh1TMZ5OT5K-17" value="Reports is to track Illegal Activities" style="rounded=0;whiteSpace=wrap;html=1;shadow=1;sketch=1;" parent="1" vertex="1">
                    <mxGeometry x="-130" y="-133" width="120" height="60" as="geometry"/>
                </mxCell>
                <mxCell id="owdlpUDmySh1TMZ5OT5K-19" value="Report Category List" style="swimlane;fontStyle=0;childLayout=stackLayout;horizontal=1;startSize=30;horizontalStack=0;resizeParent=1;resizeParentMax=0;resizeLast=0;collapsible=1;marginBottom=0;rounded=0;shadow=1;sketch=1;swimlaneLine=1;glass=0;gradientColor=none;swimlaneFillColor=default;" parent="1" vertex="1">
                    <mxGeometry x="-140" y="-59" width="140" height="150" as="geometry"/>
                </mxCell>
                <mxCell id="owdlpUDmySh1TMZ5OT5K-20" value="Comment" style="text;strokeColor=none;fillColor=none;align=left;verticalAlign=middle;spacingLeft=4;spacingRight=4;overflow=hidden;points=[[0,0.5],[1,0.5]];portConstraint=eastwest;rotatable=0;" parent="owdlpUDmySh1TMZ5OT5K-19" vertex="1">
                    <mxGeometry y="30" width="140" height="30" as="geometry"/>
                </mxCell>
                <mxCell id="owdlpUDmySh1TMZ5OT5K-21" value="User" style="text;strokeColor=none;fillColor=none;align=left;verticalAlign=middle;spacingLeft=4;spacingRight=4;overflow=hidden;points=[[0,0.5],[1,0.5]];portConstraint=eastwest;rotatable=0;" parent="owdlpUDmySh1TMZ5OT5K-19" vertex="1">
                    <mxGeometry y="60" width="140" height="30" as="geometry"/>
                </mxCell>
                <mxCell id="owdlpUDmySh1TMZ5OT5K-22" value="Post" style="text;strokeColor=none;fillColor=none;align=left;verticalAlign=middle;spacingLeft=4;spacingRight=4;overflow=hidden;points=[[0,0.5],[1,0.5]];portConstraint=eastwest;rotatable=0;sketch=0;" parent="owdlpUDmySh1TMZ5OT5K-19" vertex="1">
                    <mxGeometry y="90" width="140" height="30" as="geometry"/>
                </mxCell>
                <mxCell id="owdlpUDmySh1TMZ5OT5K-26" value="Circle" style="text;strokeColor=none;fillColor=none;align=left;verticalAlign=middle;spacingLeft=4;spacingRight=4;overflow=hidden;points=[[0,0.5],[1,0.5]];portConstraint=eastwest;rotatable=0;" parent="owdlpUDmySh1TMZ5OT5K-19" vertex="1">
                    <mxGeometry y="120" width="140" height="30" as="geometry"/>
                </mxCell>
                <mxCell id="owdlpUDmySh1TMZ5OT5K-25" value="" style="endArrow=classic;html=1;rounded=0;entryX=1.012;entryY=0.085;entryDx=0;entryDy=0;entryPerimeter=0;exitX=0;exitY=0.25;exitDx=0;exitDy=0;" parent="1" source="8kqa-zrqso4DdCSM_s6q-17" target="owdlpUDmySh1TMZ5OT5K-19" edge="1">
                    <mxGeometry width="50" height="50" relative="1" as="geometry">
                        <mxPoint x="10" y="10" as="sourcePoint"/>
                        <mxPoint x="60" y="-40" as="targetPoint"/>
                    </mxGeometry>
                </mxCell>
                <mxCell id="2" value="Tokens" style="swimlane;fillColor=#b0e3e6;strokeColor=#0e8088;swimlaneFillColor=default;rounded=1;shadow=1;" parent="1" vertex="1">
                    <mxGeometry x="400" y="510" width="200" height="200" as="geometry"/>
                </mxCell>
                <mxCell id="3" value="Token ID ( primary key )" style="rounded=0;whiteSpace=wrap;html=1;" parent="2" vertex="1">
                    <mxGeometry y="23" width="200" height="17" as="geometry"/>
                </mxCell>
                <mxCell id="4" value="User ID (Creator)" style="rounded=0;whiteSpace=wrap;html=1;" parent="2" vertex="1">
                    <mxGeometry y="40" width="200" height="17" as="geometry"/>
                </mxCell>
                <mxCell id="5" value="Create Time" style="rounded=0;whiteSpace=wrap;html=1;" parent="2" vertex="1">
                    <mxGeometry y="57" width="200" height="17" as="geometry"/>
                </mxCell>
                <mxCell id="6" value="isVerified" style="rounded=0;whiteSpace=wrap;html=1;" parent="2" vertex="1">
                    <mxGeometry y="74" width="200" height="17" as="geometry"/>
                </mxCell>
                <mxCell id="7" value="emailToken" style="rounded=0;whiteSpace=wrap;html=1;" parent="2" vertex="1">
                    <mxGeometry y="91.5" width="200" height="17" as="geometry"/>
                </mxCell>
                <mxCell id="8" value="phoneToken" style="rounded=0;whiteSpace=wrap;html=1;" parent="2" vertex="1">
                    <mxGeometry y="108.5" width="200" height="17" as="geometry"/>
                </mxCell>
                <mxCell id="9" value="email" style="rounded=0;whiteSpace=wrap;html=1;" parent="2" vertex="1">
                    <mxGeometry y="125.5" width="200" height="17" as="geometry"/>
                </mxCell>
                <mxCell id="11" value="phone" style="rounded=0;whiteSpace=wrap;html=1;" parent="2" vertex="1">
                    <mxGeometry y="140" width="200" height="17" as="geometry"/>
                </mxCell>
                <mxCell id="10" style="edgeStyle=none;html=1;entryX=0;entryY=0;entryDx=0;entryDy=0;" parent="1" source="-TFifHRZnb5QUAOWfHb_-7" target="5" edge="1">
                    <mxGeometry relative="1" as="geometry">
                        <Array as="points">
                            <mxPoint x="330" y="396"/>
                            <mxPoint x="330" y="567"/>
                        </Array>
                    </mxGeometry>
                </mxCell>
            </root>
        </mxGraphModel>
    </diagram>
</mxfile>